<mxfile host="65bd71144e">
    <diagram id="vT_WQh5AP9iF8nqTUeWa" name="Page-1">
        <mxGraphModel dx="986" dy="427" grid="1" gridSize="10" guides="1" tooltips="1" connect="1" arrows="1" fold="1" page="1" pageScale="1" pageWidth="850" pageHeight="1100" math="0" shadow="0">
            <root>
                <mxCell id="0"/>
                <mxCell id="1" parent="0"/>
                <mxCell id="Qi1FrE6jSTrTNIEHBvnv-17" style="edgeStyle=none;html=1;exitX=1;exitY=0.5;exitDx=0;exitDy=0;entryX=0;entryY=0.5;entryDx=0;entryDy=0;" edge="1" parent="1" source="Qi1FrE6jSTrTNIEHBvnv-5" target="Qi1FrE6jSTrTNIEHBvnv-6">
                    <mxGeometry relative="1" as="geometry"/>
                </mxCell>
                <mxCell id="Qi1FrE6jSTrTNIEHBvnv-5" value="RFQ&lt;span style=&quot;color: rgba(0, 0, 0, 0); font-family: monospace; font-size: 0px; text-align: start;&quot;&gt;%3CmxGraphModel%3E%3Croot%3E%3CmxCell%20id%3D%220%22%2F%3E%3CmxCell%20id%3D%221%22%20parent%3D%220%22%2F%3E%3CmxCell%20id%3D%222%22%20value%3D%22Approved%22%20style%3D%22rounded%3D0%3BwhiteSpace%3Dwrap%3Bhtml%3D1%3B%22%20vertex%3D%221%22%20parent%3D%221%22%3E%3CmxGeometry%20x%3D%22240%22%20y%3D%2230%22%20width%3D%22120%22%20height%3D%2240%22%20as%3D%22geometry%22%2F%3E%3C%2FmxCell%3E%3C%2Froot%3E%3C%2FmxGraphModel%3E&lt;/span&gt;" style="rounded=0;whiteSpace=wrap;html=1;" vertex="1" parent="1">
                    <mxGeometry width="80" height="40" as="geometry"/>
                </mxCell>
                <mxCell id="Qi1FrE6jSTrTNIEHBvnv-18" style="edgeStyle=none;html=1;exitX=1;exitY=0.5;exitDx=0;exitDy=0;entryX=0;entryY=0.5;entryDx=0;entryDy=0;" edge="1" parent="1" source="Qi1FrE6jSTrTNIEHBvnv-6" target="Qi1FrE6jSTrTNIEHBvnv-7">
                    <mxGeometry relative="1" as="geometry"/>
                </mxCell>
                <mxCell id="Qi1FrE6jSTrTNIEHBvnv-6" value="Approved&lt;span style=&quot;color: rgba(0, 0, 0, 0); font-family: monospace; font-size: 0px; text-align: start;&quot;&gt;%3CmxGraphModel%3E%3Croot%3E%3CmxCell%20id%3D%220%22%2F%3E%3CmxCell%20id%3D%221%22%20parent%3D%220%22%2F%3E%3CmxCell%20id%3D%222%22%20value%3D%22RFQ%26lt%3Bspan%20style%3D%26quot%3Bcolor%3A%20rgba(0%2C%200%2C%200%2C%200)%3B%20font-family%3A%20monospace%3B%20font-size%3A%200px%3B%20text-align%3A%20start%3B%26quot%3B%26gt%3B%253CmxGraphModel%253E%253Croot%253E%253CmxCell%2520id%253D%25220%2522%252F%253E%253CmxCell%2520id%253D%25221%2522%2520parent%253D%25220%2522%252F%253E%253CmxCell%2520id%253D%25222%2522%2520value%253D%2522Approved%2522%2520style%253D%2522rounded%253D0%253BwhiteSpace%253Dwrap%253Bhtml%253D1%253B%2522%2520vertex%253D%25221%2522%2520parent%253D%25221%2522%253E%253CmxGeometry%2520x%253D%2522240%2522%2520y%253D%252230%2522%2520width%253D%2522120%2522%2520height%253D%252240%2522%2520as%253D%2522geometry%2522%252F%253E%253C%252FmxCell%253E%253C%252Froot%253E%253C%252FmxGraphModel%253E%26lt%3B%2Fspan%26gt%3B%22%20style%3D%22rounded%3D0%3BwhiteSpace%3Dwrap%3Bhtml%3D1%3B%22%20vertex%3D%221%22%20parent%3D%221%22%3E%3CmxGeometry%20width%3D%2280%22%20height%3D%2240%22%20as%3D%22geometry%22%2F%3E%3C%2FmxCell%3E%3C%2Froot%3E%3C%2FmxGraphModel%3E&lt;/span&gt;" style="rounded=0;whiteSpace=wrap;html=1;" vertex="1" parent="1">
                    <mxGeometry x="120" width="80" height="40" as="geometry"/>
                </mxCell>
                <mxCell id="Qi1FrE6jSTrTNIEHBvnv-20" style="edgeStyle=none;html=1;exitX=1;exitY=0.5;exitDx=0;exitDy=0;entryX=0;entryY=0.5;entryDx=0;entryDy=0;" edge="1" parent="1" source="Qi1FrE6jSTrTNIEHBvnv-7" target="Qi1FrE6jSTrTNIEHBvnv-8">
                    <mxGeometry relative="1" as="geometry"/>
                </mxCell>
                <mxCell id="Qi1FrE6jSTrTNIEHBvnv-7" value="Orders" style="rounded=0;whiteSpace=wrap;html=1;" vertex="1" parent="1">
                    <mxGeometry x="240" width="80" height="40" as="geometry"/>
                </mxCell>
                <mxCell id="Qi1FrE6jSTrTNIEHBvnv-21" style="edgeStyle=none;html=1;exitX=1;exitY=0.5;exitDx=0;exitDy=0;entryX=0;entryY=0.5;entryDx=0;entryDy=0;" edge="1" parent="1" source="Qi1FrE6jSTrTNIEHBvnv-8" target="Qi1FrE6jSTrTNIEHBvnv-9">
                    <mxGeometry relative="1" as="geometry"/>
                </mxCell>
                <mxCell id="Qi1FrE6jSTrTNIEHBvnv-8" value="Payment" style="rounded=0;whiteSpace=wrap;html=1;" vertex="1" parent="1">
                    <mxGeometry x="360" width="80" height="40" as="geometry"/>
                </mxCell>
                <mxCell id="Qi1FrE6jSTrTNIEHBvnv-22" style="edgeStyle=none;html=1;exitX=0.5;exitY=1;exitDx=0;exitDy=0;entryX=1;entryY=0.25;entryDx=0;entryDy=0;" edge="1" parent="1" source="Qi1FrE6jSTrTNIEHBvnv-9" target="Qi1FrE6jSTrTNIEHBvnv-10">
                    <mxGeometry relative="1" as="geometry"/>
                </mxCell>
                <mxCell id="Qi1FrE6jSTrTNIEHBvnv-23" style="edgeStyle=none;html=1;exitX=0.75;exitY=1;exitDx=0;exitDy=0;entryX=0.25;entryY=0;entryDx=0;entryDy=0;" edge="1" parent="1" source="Qi1FrE6jSTrTNIEHBvnv-9" target="Qi1FrE6jSTrTNIEHBvnv-14">
                    <mxGeometry relative="1" as="geometry"/>
                </mxCell>
                <mxCell id="Qi1FrE6jSTrTNIEHBvnv-9" value="Transport" style="rounded=0;whiteSpace=wrap;html=1;" vertex="1" parent="1">
                    <mxGeometry x="510" width="80" height="40" as="geometry"/>
                </mxCell>
                <mxCell id="Qi1FrE6jSTrTNIEHBvnv-27" style="edgeStyle=none;html=1;exitX=0.5;exitY=1;exitDx=0;exitDy=0;entryX=0.5;entryY=0;entryDx=0;entryDy=0;" edge="1" parent="1" source="Qi1FrE6jSTrTNIEHBvnv-10" target="Qi1FrE6jSTrTNIEHBvnv-11">
                    <mxGeometry relative="1" as="geometry"/>
                </mxCell>
                <mxCell id="Qi1FrE6jSTrTNIEHBvnv-10" value="Sales" style="rounded=0;whiteSpace=wrap;html=1;" vertex="1" parent="1">
                    <mxGeometry y="80" width="80" height="40" as="geometry"/>
                </mxCell>
                <mxCell id="Qi1FrE6jSTrTNIEHBvnv-28" style="edgeStyle=none;html=1;exitX=0.5;exitY=1;exitDx=0;exitDy=0;entryX=0.5;entryY=0;entryDx=0;entryDy=0;" edge="1" parent="1" source="Qi1FrE6jSTrTNIEHBvnv-11" target="Qi1FrE6jSTrTNIEHBvnv-12">
                    <mxGeometry relative="1" as="geometry"/>
                </mxCell>
                <mxCell id="Qi1FrE6jSTrTNIEHBvnv-11" value="Orders" style="rounded=0;whiteSpace=wrap;html=1;" vertex="1" parent="1">
                    <mxGeometry y="160" width="80" height="40" as="geometry"/>
                </mxCell>
                <mxCell id="Qi1FrE6jSTrTNIEHBvnv-29" style="edgeStyle=none;html=1;exitX=0.5;exitY=1;exitDx=0;exitDy=0;entryX=0.5;entryY=0;entryDx=0;entryDy=0;" edge="1" parent="1" source="Qi1FrE6jSTrTNIEHBvnv-12" target="Qi1FrE6jSTrTNIEHBvnv-13">
                    <mxGeometry relative="1" as="geometry"/>
                </mxCell>
                <mxCell id="Qi1FrE6jSTrTNIEHBvnv-32" style="edgeStyle=none;html=1;exitX=1;exitY=0.5;exitDx=0;exitDy=0;entryX=0;entryY=0.75;entryDx=0;entryDy=0;" edge="1" parent="1" source="Qi1FrE6jSTrTNIEHBvnv-12" target="Qi1FrE6jSTrTNIEHBvnv-31">
                    <mxGeometry relative="1" as="geometry"/>
                </mxCell>
                <mxCell id="Qi1FrE6jSTrTNIEHBvnv-12" value="Transport" style="rounded=0;whiteSpace=wrap;html=1;" vertex="1" parent="1">
                    <mxGeometry y="240" width="80" height="40" as="geometry"/>
                </mxCell>
                <mxCell id="Qi1FrE6jSTrTNIEHBvnv-30" style="edgeStyle=none;html=1;exitX=1;exitY=0.5;exitDx=0;exitDy=0;entryX=0;entryY=0.5;entryDx=0;entryDy=0;" edge="1" parent="1" source="Qi1FrE6jSTrTNIEHBvnv-13" target="Qi1FrE6jSTrTNIEHBvnv-14">
                    <mxGeometry relative="1" as="geometry"/>
                </mxCell>
                <mxCell id="Qi1FrE6jSTrTNIEHBvnv-13" value="Return Order" style="rounded=0;whiteSpace=wrap;html=1;" vertex="1" parent="1">
                    <mxGeometry y="320" width="80" height="40" as="geometry"/>
                </mxCell>
                <mxCell id="Qi1FrE6jSTrTNIEHBvnv-24" style="edgeStyle=none;html=1;exitX=0.5;exitY=1;exitDx=0;exitDy=0;entryX=0.5;entryY=0;entryDx=0;entryDy=0;" edge="1" parent="1" source="Qi1FrE6jSTrTNIEHBvnv-14" target="Qi1FrE6jSTrTNIEHBvnv-15">
                    <mxGeometry relative="1" as="geometry"/>
                </mxCell>
                <mxCell id="Qi1FrE6jSTrTNIEHBvnv-14" value="Inventory" style="rounded=0;whiteSpace=wrap;html=1;" vertex="1" parent="1">
                    <mxGeometry x="600" y="80" width="80" height="40" as="geometry"/>
                </mxCell>
                <mxCell id="Qi1FrE6jSTrTNIEHBvnv-25" style="edgeStyle=none;html=1;exitX=0.5;exitY=1;exitDx=0;exitDy=0;entryX=0.5;entryY=0;entryDx=0;entryDy=0;" edge="1" parent="1" source="Qi1FrE6jSTrTNIEHBvnv-15" target="Qi1FrE6jSTrTNIEHBvnv-16">
                    <mxGeometry relative="1" as="geometry"/>
                </mxCell>
                <mxCell id="Qi1FrE6jSTrTNIEHBvnv-15" value="QC against Order" style="rounded=0;whiteSpace=wrap;html=1;" vertex="1" parent="1">
                    <mxGeometry x="600" y="160" width="80" height="40" as="geometry"/>
                </mxCell>
                <mxCell id="Qi1FrE6jSTrTNIEHBvnv-26" style="edgeStyle=none;html=1;exitX=0;exitY=0.5;exitDx=0;exitDy=0;entryX=1;entryY=0.75;entryDx=0;entryDy=0;" edge="1" parent="1" source="Qi1FrE6jSTrTNIEHBvnv-16" target="Qi1FrE6jSTrTNIEHBvnv-10">
                    <mxGeometry relative="1" as="geometry"/>
                </mxCell>
                <mxCell id="Qi1FrE6jSTrTNIEHBvnv-16" value="Stock" style="rounded=0;whiteSpace=wrap;html=1;" vertex="1" parent="1">
                    <mxGeometry x="600" y="240" width="80" height="40" as="geometry"/>
                </mxCell>
                <mxCell id="Qi1FrE6jSTrTNIEHBvnv-34" style="edgeStyle=none;html=1;exitX=1;exitY=0.5;exitDx=0;exitDy=0;entryX=0;entryY=0.5;entryDx=0;entryDy=0;" edge="1" parent="1" source="Qi1FrE6jSTrTNIEHBvnv-31" target="Qi1FrE6jSTrTNIEHBvnv-33">
                    <mxGeometry relative="1" as="geometry"/>
                </mxCell>
                <mxCell id="Qi1FrE6jSTrTNIEHBvnv-31" value="Create Bill" style="rounded=0;whiteSpace=wrap;html=1;" vertex="1" parent="1">
                    <mxGeometry x="120" y="200" width="120" height="50" as="geometry"/>
                </mxCell>
                <mxCell id="Qi1FrE6jSTrTNIEHBvnv-33" value="Payment" style="rounded=0;whiteSpace=wrap;html=1;" vertex="1" parent="1">
                    <mxGeometry x="300" y="260" width="120" height="50" as="geometry"/>
                </mxCell>
                <mxCell id="Qi1FrE6jSTrTNIEHBvnv-37" value="Wastage" style="rounded=0;whiteSpace=wrap;html=1;" vertex="1" parent="1">
                    <mxGeometry x="710" y="240" width="120" height="40" as="geometry"/>
                </mxCell>
                <mxCell id="Qi1FrE6jSTrTNIEHBvnv-38" value="RFQ" style="rounded=0;whiteSpace=wrap;html=1;" vertex="1" parent="1">
                    <mxGeometry x="220" y="460" width="120" height="60" as="geometry"/>
                </mxCell>
                <mxCell id="Qi1FrE6jSTrTNIEHBvnv-44" style="edgeStyle=none;html=1;exitX=1;exitY=0.5;exitDx=0;exitDy=0;entryX=0;entryY=0.75;entryDx=0;entryDy=0;" edge="1" parent="1" source="Qi1FrE6jSTrTNIEHBvnv-39" target="Qi1FrE6jSTrTNIEHBvnv-42">
                    <mxGeometry relative="1" as="geometry"/>
                </mxCell>
                <mxCell id="Qi1FrE6jSTrTNIEHBvnv-45" style="edgeStyle=none;html=1;exitX=1;exitY=0.75;exitDx=0;exitDy=0;entryX=0;entryY=0.5;entryDx=0;entryDy=0;" edge="1" parent="1" source="Qi1FrE6jSTrTNIEHBvnv-39" target="Qi1FrE6jSTrTNIEHBvnv-43">
                    <mxGeometry relative="1" as="geometry"/>
                </mxCell>
                <mxCell id="Qi1FrE6jSTrTNIEHBvnv-39" value="Users" style="rounded=0;whiteSpace=wrap;html=1;" vertex="1" parent="1">
                    <mxGeometry x="220" y="550" width="120" height="60" as="geometry"/>
                </mxCell>
                <mxCell id="Qi1FrE6jSTrTNIEHBvnv-40" value="orders" style="rounded=0;whiteSpace=wrap;html=1;" vertex="1" parent="1">
                    <mxGeometry x="220" y="630" width="120" height="60" as="geometry"/>
                </mxCell>
                <mxCell id="Qi1FrE6jSTrTNIEHBvnv-41" value="transport" style="rounded=0;whiteSpace=wrap;html=1;" vertex="1" parent="1">
                    <mxGeometry x="220" y="720" width="120" height="60" as="geometry"/>
                </mxCell>
                <mxCell id="Qi1FrE6jSTrTNIEHBvnv-42" value="Farmer" style="rounded=0;whiteSpace=wrap;html=1;" vertex="1" parent="1">
                    <mxGeometry x="420" y="540" width="120" height="60" as="geometry"/>
                </mxCell>
                <mxCell id="Qi1FrE6jSTrTNIEHBvnv-43" value="Vendor" style="rounded=0;whiteSpace=wrap;html=1;" vertex="1" parent="1">
                    <mxGeometry x="425" y="640" width="120" height="60" as="geometry"/>
                </mxCell>
            </root>
        </mxGraphModel>
    </diagram>
    <diagram id="lreB5elhaN2tv8OQt6pm" name="Page-2">
        <mxGraphModel dx="816" dy="350" grid="1" gridSize="10" guides="1" tooltips="1" connect="1" arrows="1" fold="1" page="1" pageScale="1" pageWidth="850" pageHeight="1100" math="0" shadow="0">
            <root>
                <mxCell id="0"/>
                <mxCell id="1" parent="0"/>
                <mxCell id="tDRUpVrmMxoObSSZC00H-1" value="Orders" style="rounded=0;whiteSpace=wrap;html=1;" vertex="1" parent="1">
                    <mxGeometry x="130" y="50" width="120" height="60" as="geometry"/>
                </mxCell>
                <mxCell id="tDRUpVrmMxoObSSZC00H-2" value="Return Orders" style="rounded=0;whiteSpace=wrap;html=1;" vertex="1" parent="1">
                    <mxGeometry x="130" y="150" width="120" height="50" as="geometry"/>
                </mxCell>
                <mxCell id="UXx9ghP9_YmoOqYzzmsI-1" value="Stocks" style="rounded=0;whiteSpace=wrap;html=1;" vertex="1" parent="1">
                    <mxGeometry x="130" y="240" width="120" height="60" as="geometry"/>
                </mxCell>
            </root>
        </mxGraphModel>
    </diagram>
</mxfile>